<?xml version="1.0" encoding="UTF-8" standalone="no"?>
<!DOCTYPE svg PUBLIC "-//W3C//DTD SVG 1.1//EN"
 "http://www.w3.org/Graphics/SVG/1.1/DTD/svg11.dtd">
<!-- Generated by graphviz version 2.43.0 (0)
 -->
<!-- Title: %3 Pages: 1 -->
<svg width="172pt" height="206pt"
 viewBox="0.00 0.00 172.46 205.93" xmlns="http://www.w3.org/2000/svg" xmlns:xlink="http://www.w3.org/1999/xlink">
<g id="graph0" class="graph" transform="scale(1 1) rotate(0) translate(4 201.93)">
<title>%3</title>
<polygon fill="white" stroke="transparent" points="-4,4 -4,-201.93 168.46,-201.93 168.46,4 -4,4"/>
<!-- Alice -->
<g id="node1" class="node">
<title>Alice</title>
<ellipse fill="none" stroke="red" cx="81" cy="-161.93" rx="36" ry="36"/>
<text text-anchor="middle" x="81" y="-158.23" font-family="Times,serif" font-size="14.00">Alice</text>
</g>
<!-- Bob -->
<g id="node2" class="node">
<title>Bob</title>
<ellipse fill="none" stroke="blue" cx="36" cy="-37.46" rx="36" ry="36"/>
<text text-anchor="middle" x="36" y="-33.76" font-family="Times,serif" font-size="14.00">Bob</text>
</g>
<!-- Alice&#45;&gt;Bob -->
<g id="edge1" class="edge">
<title>Alice&#45;&gt;Bob</title>
<path fill="none" stroke="black" d="M68.82,-127.79C63.57,-113.49 57.36,-96.59 51.76,-81.36"/>
<polygon fill="black" stroke="black" points="54.92,-79.81 48.19,-71.63 48.35,-82.22 54.92,-79.81"/>
<text text-anchor="middle" x="80.5" y="-96.73" font-family="Times,serif" font-size="14.00">loves</text>
</g>
<!-- Charles -->
<g id="node3" class="node">
<title>Charles</title>
<ellipse fill="none" stroke="green" cx="127" cy="-37.46" rx="37.43" ry="37.43"/>
<text text-anchor="middle" x="127" y="-33.76" font-family="Times,serif" font-size="14.00">Charles</text>
</g>
<!-- Alice&#45;&gt;Charles -->
<g id="edge2" class="edge">
<title>Alice&#45;&gt;Charles</title>
<path fill="none" stroke="black" d="M94.81,-128.54C97.6,-121.76 100.45,-114.63 103,-107.93 106.06,-99.87 109.18,-91.22 112.11,-82.87"/>
<polygon fill="black" stroke="black" points="115.48,-83.83 115.45,-73.24 108.86,-81.54 115.48,-83.83"/>
<text text-anchor="middle" x="127" y="-96.73" font-family="Times,serif" font-size="14.00">hates</text>
</g>
</g>
</svg>
